<?xml version="1.0" encoding="UTF-8" standalone="no"?>
<svg
   xmlns:dc="http://purl.org/dc/elements/1.1/"
   xmlns:cc="http://creativecommons.org/ns#"
   xmlns:rdf="http://www.w3.org/1999/02/22-rdf-syntax-ns#"
   xmlns:svg="http://www.w3.org/2000/svg"
   xmlns="http://www.w3.org/2000/svg"
   xmlns:sodipodi="http://sodipodi.sourceforge.net/DTD/sodipodi-0.dtd"
   xmlns:inkscape="http://www.inkscape.org/namespaces/inkscape"
   width="1920"
   height="1080"
   viewBox="0 0 507.99999 285.75001"
   version="1.1"
   id="svg8"
   inkscape:version="1.0.2-2 (e86c870879, 2021-01-15)"
   sodipodi:docname="penguin.svg">
  <defs
     id="defs2">
    <inkscape:path-effect
       effect="bspline"
       id="path-effect907"
       is_visible="true"
       lpeversion="1"
       weight="33.333333"
       steps="2"
       helper_size="0"
       apply_no_weight="true"
       apply_with_weight="true"
       only_selected="false" />
    <inkscape:path-effect
       effect="bspline"
       id="path-effect861"
       is_visible="true"
       lpeversion="1"
       weight="33.333333"
       steps="2"
       helper_size="0"
       apply_no_weight="true"
       apply_with_weight="true"
       only_selected="false" />
    <inkscape:path-effect
       effect="bspline"
       id="path-effect857"
       is_visible="true"
       lpeversion="1"
       weight="33.333333"
       steps="2"
       helper_size="0"
       apply_no_weight="true"
       apply_with_weight="true"
       only_selected="false" />
    <inkscape:path-effect
       effect="bspline"
       id="path-effect853"
       is_visible="true"
       lpeversion="1"
       weight="33.333333"
       steps="2"
       helper_size="0"
       apply_no_weight="true"
       apply_with_weight="true"
       only_selected="false" />
    <inkscape:path-effect
       effect="bspline"
       id="path-effect849"
       is_visible="true"
       lpeversion="1"
       weight="33.333333"
       steps="2"
       helper_size="0"
       apply_no_weight="true"
       apply_with_weight="true"
       only_selected="false" />
  </defs>
  <sodipodi:namedview
     id="base"
     pagecolor="#ffffff"
     bordercolor="#666666"
     borderopacity="1.0"
     inkscape:pageopacity="0.0"
     inkscape:pageshadow="2"
     inkscape:zoom="0.35355339"
     inkscape:cx="807.24389"
     inkscape:cy="538.90742"
     inkscape:document-units="px"
     inkscape:current-layer="layer1"
     inkscape:document-rotation="0"
     showgrid="false"
     units="px"
     inkscape:window-width="1920"
     inkscape:window-height="1009"
     inkscape:window-x="1912"
     inkscape:window-y="-8"
     inkscape:window-maximized="1" />
  <metadata
     id="metadata5">
    <rdf:RDF>
      <cc:Work
         rdf:about="">
        <dc:format>image/svg+xml</dc:format>
        <dc:type
           rdf:resource="http://purl.org/dc/dcmitype/StillImage" />
        <dc:title></dc:title>
      </cc:Work>
    </rdf:RDF>
  </metadata>
  <g
     inkscape:label="Layer 1"
     inkscape:groupmode="layer"
     id="layer1">
    <path
       style="fill:#b2e4ff;fill-opacity:1;stroke:none;stroke-width:0.264583px;stroke-linecap:butt;stroke-linejoin:miter;stroke-opacity:1"
       d="M 0,0 V 285.75 H 508 V 0 Z"
       id="path913"
       sodipodi:nodetypes="ccccc" />
    <path
       style="fill:#97c1d9;fill-opacity:1;stroke:none;stroke-width:0.264583px;stroke-linecap:butt;stroke-linejoin:miter;stroke-opacity:1"
       d="M 226.83445,201.27077 405.58157,285.75 H 508 V 205.25466 L 250.69414,85.518661 245.13646,193.60886 Z"
       id="path909"
       sodipodi:nodetypes="ccccccc" />
    <g
       id="g901"
       transform="matrix(1.4143951,0,0,1.4143951,32.177776,-66.11325)">
      <path
         style="fill:#000000;fill-opacity:1;stroke:#050201;stroke-width:0.0232143"
         d="m 174.64967,189.08492 c -1.68979,-1.98805 -3.35148,-4.25557 -4.32009,-6.91486 -0.89908,-2.46837 -1.89798,-6.84255 -2.33048,-8.84701 -0.62046,-2.87559 -1.29404,-7.44268 -1.94387,-12.23697 -0.16202,-1.19535 0.009,-1.83205 -0.0298,0.93313 -0.0623,4.41353 -0.43109,7.08243 -1.21982,11.03398 -0.39534,1.98062 -0.52384,2.55443 -0.91291,3.03816 -0.35782,0.44489 -1.32003,0.83628 -1.89848,0.84873 -0.69756,0.015 -1.77806,-0.40511 -2.89876,-1.24934 -2.6823,-2.02059 -5.22402,-4.90488 -7.31039,-10.19839 -1.85949,-4.71786 -2.78874,-9.80167 -4.22715,-16.19905 -1.08711,-4.83493 -1.60982,-6.61417 -2.19074,-11.10073 -0.18311,-1.41417 -0.21649,-2.71262 -0.26813,-2.98754 -0.42708,-2.2737 -1.68655,-4.44445 -3.29632,-5.23985 -1.32149,-0.65296 -2.4113,-0.74734 -5.36415,-0.69031 -1.44309,0.0279 -1.68596,-0.14953 -1.85027,-0.38967 l -0.42298,-0.61819 0.0639,-4.17333 c 0.0417,-2.72558 0.2591,-6.36259 0.42218,-7.35669 0.41154,-2.50873 0.58404,-3.6265 1.15248,-4.47873 0.56844,-0.85223 2.04866,-2.42525 3.24339,-3.37357 1.19472,-0.94831 3.65378,-2.23296 6.07871,-2.89734 2.13222,-0.58418 3.65651,-0.64249 6.08002,-0.2326 1.69482,0.28665 3.21439,0.87366 4.90486,1.89475 1.41344,0.85376 2.71321,2.26662 4.2061,4.5721 1.39456,2.15361 2.6725,5.00365 4.45161,9.9279 2.21038,6.11794 5.62803,18.96073 10.40872,39.11375 2.09309,8.82342 3.5333,14.47551 4.01288,15.74848 0.25393,0.67402 0.57798,1.08203 1.39187,1.75248 0.78118,0.6435 3.59021,2.74955 6.40269,4.80037 2.96953,2.16533 3.45549,2.6835 3.45549,3.68454 0,0.58443 -0.0183,1.03226 -0.56892,1.63108 -0.39993,0.43494 -0.68316,0.4349 -1.08721,0.50117 -0.2585,0.0424 -3.38277,0.0782 -6.94283,0.0796 l -6.82785,-0.0234 z"
         id="path869"
         sodipodi:nodetypes="cssssssssssssssscsszzssssssssssssccc" />
      <path
         style="fill:#ffd464;fill-opacity:1;stroke:none;stroke-width:0.0116071"
         d="m 140.20695,189.44363 c -0.76613,-0.0203 -1.67092,-0.10789 -2.11646,-0.20478 -1.2265,-0.26674 -1.94635,-1.20012 -1.86304,-2.41568 0.0319,-0.46578 0.13862,-0.65918 0.61011,-1.10589 1.1088,-1.05053 7.4982,-5.90619 8.23052,-6.25482 0.48322,-0.23005 0.50419,-0.22907 0.66327,0.031 0.0969,0.15847 0.47645,0.56463 0.9415,1.02469 0.5053,0.49987 1.11159,1.06336 1.56609,1.44184 2.04685,1.7045 3.75508,2.62917 6.29436,3.89788 2.3905,1.19437 4.29394,1.93512 7.50715,2.95363 0.75359,0.23887 1.78686,0.62848 1.83884,0.65142 0.0821,0.0362 -22.33913,0.0161 -23.67234,-0.0193 z"
         id="path871"
         sodipodi:nodetypes="sssssssssssss" />
      <path
         style="fill:#ffffff;fill-opacity:1;stroke:none;stroke-width:0.016415"
         d="m 161.72444,188.79097 c -3.52745,-1.14031 -5.40244,-1.87697 -7.68126,-3.01788 -1.9753,-0.98894 -3.25072,-1.75255 -4.59983,-2.75399 -1.60408,-1.1907 -3.37471,-2.77576 -3.91264,-3.50256 -0.27856,-0.37636 -0.28136,-0.3856 -0.19247,-0.63476 0.13908,-0.38985 0.11908,-0.91465 -0.0473,-1.24076 -0.0788,-0.15455 -0.53477,-0.89753 -1.01317,-1.65107 -1.62587,-2.56092 -3.04989,-5.17866 -3.8894,-7.14977 -2.15556,-5.06109 -3.65155,-11.27126 -4.47466,-18.57523 -0.38906,-3.45241 -0.54388,-6.19513 -0.63555,-11.25873 -0.13286,-7.33968 -0.19807,-9.08428 -0.36499,-9.76534 -0.0341,-0.13931 -0.0106,-0.14499 0.78291,-0.18877 1.13845,-0.0628 3.43001,0.0632 4.27299,0.23499 0.73694,0.15018 1.67386,0.48575 2.17561,0.77922 0.8194,0.47926 1.91975,1.8153 2.44584,2.96972 0.53508,1.17417 0.62421,1.60474 1.11128,5.36883 0.6208,4.79748 1.16278,7.64135 2.6065,13.67693 1.49012,6.22949 3.58528,12.41147 5.57776,16.4577 1.29725,2.63439 2.46245,4.33429 3.98618,5.81541 1.73965,1.691 3.5019,2.52628 4.27564,2.41025 0.77374,-0.11603 1.47723,-0.46724 1.80104,-1.22686 0.32382,-0.75962 0.44052,-1.04271 0.78665,-2.82271 0.77144,-3.96724 1.21118,-8.16076 1.21156,-11.55384 6e-5,-0.49305 0.0178,-0.87875 0.0395,-0.85709 0.0216,0.0216 0.21478,1.25192 0.42917,2.73394 1.0857,7.50523 1.68569,10.52168 2.88073,14.48291 1.03179,3.42009 1.8658,5.76055 2.51369,7.05417 0.81005,1.61738 1.88595,3.26851 2.90127,4.45242 0.17761,0.20712 0.32397,0.40227 0.32397,0.42485 0,0.0226 -2.51921,0.0313 -5.59699,0.0283 l -5.59595,-0.006 -2.11806,-0.6847 z"
         id="path873"
         sodipodi:nodetypes="ssssssssssssssssssszzsssssssssccs" />
      <path
         style="fill:#fed363;fill-opacity:1;stroke:none;stroke-width:0.016415;stroke-opacity:0"
         d="m 131.19198,127.18272 c -3.26227,-1.18963 -5.87152,-2.21193 -7.31651,-2.86661 -0.88572,-0.40129 -1.23612,-0.64521 -1.23612,-0.8605 0,-0.11329 0.70613,-0.74026 2.03793,-1.80948 2.97424,-2.38784 5.6706,-4.1973 9.08656,-6.09778 0.66116,-0.36784 1.21258,-0.65833 1.22538,-0.64552 0.0128,0.0128 -0.0241,0.40896 -0.082,0.88036 -0.20424,1.66304 -0.33251,3.66969 -0.54381,8.50768 -0.0586,1.34136 -0.12712,2.78473 -0.1523,3.20749 l -0.0458,0.76865 z"
         id="path875" />
      <g
         id="g883"
         transform="translate(-7.3701388,7.2898101)">
        <circle
           style="fill:#c4c4c4;fill-opacity:1;stroke:none;stroke-width:0.0649999;stroke-opacity:0"
           id="path877"
           cx="150.15036"
           cy="111.42298"
           r="3.2038934" />
        <circle
           style="fill:#000000;fill-opacity:1;stroke:none;stroke-width:0.0933213;stroke-opacity:1"
           id="path879"
           cx="150.15038"
           cy="111.3996"
           r="2.0579753" />
      </g>
    </g>
  </g>
</svg>
